<?xml version="1.0" encoding="utf-8"?>
<svg xmlns="http://www.w3.org/2000/svg" height="48" width="48" viewBox="0 0 48 48">
  <g>
    <path id="path1" transform="rotate(0,24,24) translate(1.6,5.04607887268067) scale(1.4,1.4)  " fill="#337AB7" d="M1,25.07703L31,25.07703C31.552979,25.07703 32,25.525028 32,26.07703 32,26.629032 31.552979,27.07703 31,27.07703L1,27.07703C0.44702148,27.07703 0,26.629032 0,26.07703 0,25.525028 0.44702148,25.07703 1,25.07703z M9.8064213,17.357931L9.6760168,17.487015 8.8610172,21.393018 12.748013,20.558017 12.865452,20.441767z M20.509636,6.7630577L11.227604,15.951134 14.286634,19.034972 23.568132,9.8474321z M24.492002,2.821003L21.93083,5.3562489 24.989326,8.4406242 27.563,5.8930054z M24.500002,0L30.398996,5.9010048 13.740012,22.391018 6.2750196,23.99302 7.8420181,16.489014z" />
  </g>
</svg>

