<?xml version="1.0" encoding="utf-8"?>
<svg xmlns="http://www.w3.org/2000/svg" height="48" width="48" viewBox="0 0 48 48">
  <g>
    <path id="path1" transform="rotate(0,24,24) translate(3.02775049209595,0) scale(1.5,1.5)  " fill="#808080" d="M13.866444,2.2019958C10.053419,6.7969971 4.18636,8.7949982 2.1013488,9.3840027 1.7763336,12.313995 1.3213427,24.153 13.981435,29.865997 26.234573,24.259995 26.195569,13.018005 25.890575,9.673996 25.874553,9.5119934 25.767556,9.3919983 25.602546,9.3509979 24.861543,9.1640015 18.3425,7.4129944 13.866444,2.2019958z M13.845448,0L13.860462,0C14.351464,0 14.821469,0.23100281 15.152467,0.63600159 19.227487,5.5890045 25.39655,7.2460022 26.085553,7.4169922 27.06356,7.6609955 27.781583,8.4949951 27.874572,9.4909973 28.215577,13.209 28.254581,25.806 14.485468,31.820999L14.078451,32 13.569444,31.863998C-1.1786807,25.419006 -0.19167195,11.593994 0.15430929,8.8880005 0.23832476,8.2339935 0.70433256,7.6990051 1.3443227,7.5279999 3.0683381,7.0610046 8.9743997,5.1880035 12.549445,0.66299438 12.876444,0.24699402 13.349441,0.0059967041 13.845448,0z" />
  </g>
</svg>

