<?xml version="1.0" encoding="utf-8"?>
<svg xmlns="http://www.w3.org/2000/svg" height="48" width="48" viewBox="0 0 48 48">
  <g>
    <path id="path1" transform="rotate(0,24,24) translate(1.65824890136719,0) scale(1.5,1.5)  " fill="#808080" d="M8.2110157,16.419998C6.3849616,17.18,2.000004,19.518997,2.0000038,24.475998L2.0000038,30 27.788998,30 27.788998,24.475998C27.788998,19.801003,23.442003,17.306999,21.608015,16.462997L15.029999,29.612999z M20.626018,13.958L21.451033,14.236C21.790998,14.350998,29.789001,17.137001,29.789001,24.475998L29.789001,32 0,32 0,24.475998C4.7326466E-08,16.853996,8.3189868,14.245003,8.4029712,14.220001L9.1989936,13.978996 14.005012,23.274588 14.005012,15.159997 16.005012,15.159997 16.005012,23.19424z M14.894999,2C12.092996,2 9.8139934,4.2799997 9.8139934,7.0819993 9.8139934,9.8829989 12.092996,12.162998 14.894999,12.162998 17.697,12.162998 19.976002,9.8829989 19.976002,7.0819993 19.976002,4.2799997 17.697,2 14.894999,2z M14.894999,0C18.799002,0 21.976004,3.177 21.976004,7.0819993 21.976004,10.985999 18.799002,14.162998 14.894999,14.162998 10.990994,14.162998 7.8139915,10.985999 7.8139915,7.0819993 7.8139915,3.177 10.990994,0 14.894999,0z" />
  </g>
</svg>

