<?xml version="1.0" encoding="utf-8"?>
<svg xmlns="http://www.w3.org/2000/svg" height="48" width="48" viewBox="0 0 48 48">
  <g>
    <path id="path1" transform="rotate(0,24,24) translate(7.5,0) scale(1.5,1.5)  " fill="#808080" d="M9.5,27L12.5,27C12.776,27,13,27.224001,13,27.5L13,28.5C13,28.775999,12.776,29,12.5,29L9.5,29C9.224,29,9,28.775999,9,28.5L9,27.5C9,27.224001,9.224,27,9.5,27z M6,6L6,22 16,22 16,6z M5,4L17,4C17.552,4,18,4.448,18,5L18,23C18,23.552,17.552,24,17,24L5,24C4.448,24,4,23.552,4,23L4,5C4,4.448,4.448,4,5,4z M2,2L2,30 20,30 20,2z M2,0L20,0C21.105011,0,22,0.89501953,22,2L22,30C22,31.10498,21.105011,32,20,32L2,32C0.89498901,32,0,31.10498,0,30L0,2C0,0.89501953,0.89498901,0,2,0z" />
  </g>
</svg>

