<?xml version="1.0" encoding="utf-8"?>
<svg xmlns="http://www.w3.org/2000/svg" height="48" width="48" viewBox="0 0 48 48">
  <g>
    <path id="path1" transform="rotate(0,24,24) translate(7.15256248895457E-06,0) scale(1.50000107288437,1.50000107288437)  " fill="#337AB7" d="M19.312381,27.48482L18.503085,29.661004 20.944314,29.115917z M24.540007,21.633355L20.390685,25.734296 22.789237,28.131621 26.97936,24.028763z M27.175001,19.029084L25.962399,20.227547 28.408086,22.629793 29.616994,21.446061z M10.602995,15C5.8599977,15 1.999999,18.829 1.999999,23.536 1.999999,24.895 3.1159983,26 4.4899979,26L17.731456,26 17.992104,25.299033 18.172095,25.116051 18.171058,25.116051 23.266144,20.080393 23.156942,19.84575C22.697614,18.897562 22.06124,18.03375 21.28199,17.31 19.682991,15.82 17.592992,15 15.397993,15L12.999995,15z M12.999995,2C9.9420033,2 7.45401,4.467 7.45401,7.5 7.45401,9.947 9.1090055,12.123 11.478999,12.791 12.461997,13.068 13.535994,13.069 14.521991,12.791 16.891984,12.122 18.54598,9.9459996 18.54598,7.5 18.54598,4.467 16.057987,2 12.999995,2z M12.999995,0C17.160984,0 20.545975,3.3639994 20.545975,7.5 20.545975,9.6899061 19.575261,11.720467 17.995872,13.115179L17.808254,13.274325 17.879796,13.290484C19.650854,13.712344 21.290927,14.584437 22.645989,15.846 23.445364,16.590375 24.124036,17.454672 24.656125,18.399828L24.764509,18.599506 26.399983,16.983108C26.614001,16.772111 26.895004,16.666856 27.175756,16.666978 27.456508,16.6671 27.737007,16.772599 27.950018,16.983108L31.969938,20.961079 31.999967,21.450059C31.999967,21.74208,31.88095,22.027051,31.672944,22.233074L23.04003,30.684984 22.706048,30.770982 17.325118,31.973977C17.245102,31.991006 17.165085,31.999978 17.085069,31.999978 16.769093,31.999978 16.464103,31.863993 16.252069,31.619976 15.987118,31.314985 15.91113,30.89 16.054073,30.511035L16.987776,28 4.4899979,28C2.013999,28 0,25.997 0,23.536 0,18.633812 3.3858614,14.50334 7.9561033,13.332249L8.1918802,13.274945 8.0051279,13.116582C6.4251604,11.721779 5.4540157,9.6905622 5.4540157,7.5 5.4540157,3.3639994 8.8390064,0 12.999995,0z" />
  </g>
</svg>

