<?xml version="1.0" encoding="utf-8"?>
<svg xmlns="http://www.w3.org/2000/svg" height="48" width="48" viewBox="0 0 48 48">
  <g>
    <path id="path1" transform="rotate(0,24,24) translate(0,0) scale(1.5,1.5)  " fill="#808080" d="M17.097015,25.169055L20.430007,25.169055 20.430007,28.607006 17.097015,28.607006z M11.537013,25.169055L14.870005,25.169055 14.870005,28.607006 11.537013,28.607006z M5.9770029,25.169033L9.3100028,25.169033 9.3100028,28.607034 5.9770029,28.607034z M22.655994,20.608029L25.988987,20.608029 25.988987,24.046041 22.655994,24.046041z M17.097015,20.608029L20.430007,20.608029 20.430007,24.046041 17.097015,24.046041z M11.537013,20.608029L14.870005,20.608029 14.870005,24.046041 11.537013,24.046041z M5.9770101,20.608029L9.3100023,20.608029 9.3100023,24.046041 5.9770101,24.046041z M22.655994,15.988025L25.988987,15.988025 25.988987,19.426036 22.655994,19.426036z M17.097015,15.988025L20.430007,15.988025 20.430007,19.426036 17.097015,19.426036z M11.537013,15.988025L14.870005,15.988025 14.870005,19.426036 11.537013,19.426036z M5.9770101,15.988025L9.3100023,15.988025 9.3100023,19.426036 5.9770101,19.426036z M22.655994,11.448003L25.988987,11.448003 25.988987,14.886014 22.655994,14.886014z M17.097015,11.448003L20.430007,11.448003 20.430007,14.886014 17.097015,14.886014z M11.537013,11.448003L14.870005,11.448003 14.870005,14.886014 11.537013,14.886014z M1.9999998,9.6550322L1.9999998,30.000002 30,30.000002 30,9.6550322z M1.9999998,5.1310177L1.9999998,7.6550331 30,7.6550331 30,5.1310177 27,5.1310177 27,6 25,6 25,5.1310177 8,5.1310177 8,6 5.9999999,6 5.9999999,5.1310177z M5.9999999,0L8,0 8,3.1310196 25,3.1310196 25,0 27,0 27,3.1310196 32,3.1310196 32,32 0,32 0,3.1310196 5.9999999,3.1310196z" />
  </g>
</svg>

