<?xml version="1.0" encoding="utf-8"?>
<svg xmlns="http://www.w3.org/2000/svg" height="48" width="48" viewBox="0 0 48 48">
  <g>
    <path id="path1" transform="rotate(0,24,24) translate(0,2.41521703090457) scale(1.49967230566308,1.49967230566308)  " fill="#808080" d="M15.379262,1.9999988C11.843206,1.999999,8.9662164,4.8770122,8.9662164,8.412991L8.9662164,10.913997C8.9662164,13.335993 10.381213,15.597987 12.571243,16.674006 12.966267,16.868983 13.188255,17.299981 13.116232,17.735009 13.043233,18.170006 12.695268,18.506981 12.257213,18.562981 8.1671947,19.092003 5.2301458,20.523003 3.5271212,22.817008 2.4271315,24.297995 2.0921052,25.855002 2.0170921,26.786002L29.989496,26.786002C29.913444,25.847006 29.573474,24.267996 28.447421,22.774008 26.691417,20.441002 23.652377,19.01101 19.414348,18.521996 18.976354,18.472008 18.622346,18.140007 18.544341,17.70501 18.466337,17.270989 18.68332,16.837 19.077308,16.636988 21.256351,15.531001 22.610372,13.338007 22.610372,10.913997L22.610372,8.412991C22.610372,4.8770122,19.733322,1.999999,16.197265,1.9999988z M15.379262,0L16.197265,0C20.835325,-1.6084346E-07,24.610399,3.7740159,24.610399,8.412991L24.610399,10.913997C24.610399,13.226984 23.672397,15.378993 22.063369,16.937983 26.83241,17.999993 29.242477,20.284996 30.446472,22.144005 32.1415,24.761984 32.113485,27.454001 31.912492,28.088002 31.780473,28.503987 31.394481,28.786 30.958501,28.786L1.0471091,28.786C0.61106827,28.786 0.22507701,28.50298 0.0930561,28.086995 -0.10390668,27.460989 -0.13393637,24.796988 1.5270958,22.196984 2.693126,20.370995 5.0191444,18.118004 9.6061777,17.015984 7.9551562,15.443995 6.9661907,13.235987 6.9661907,10.913997L6.9661907,8.412991C6.9661907,3.7740159,10.741203,-1.6084346E-07,15.379262,0z" />
  </g>
</svg>

