<?xml version="1.0" encoding="utf-8"?>
<svg xmlns="http://www.w3.org/2000/svg" height="48" width="48" viewBox="0 0 48 48">
  <g>
    <path id="path1" transform="rotate(0,24,24) translate(0,5.25004036724808) scale(1.50000008940697,1.50000008940697)  " fill="#FFFFFF" d="M8.269009,12.887995L2.6936726,22.999944 24.594741,22.999944 17.952993,16.31987 12.99099,19.62394z M21.124999,7.9999996C22.230001,7.9999998 23.124999,8.8949997 23.124999,9.9999996 23.124999,11.105 22.230001,12 21.124999,12 20.02,12 19.124999,11.105 19.124999,9.9999996 19.124999,8.8949997 20.02,7.9999998 21.124999,7.9999996z M1.9999999,5.9999437L1.9999999,20.115875 8.0649995,9.113957 13.508995,16.877975 18.213003,13.74395 25.999999,21.576855 25.999999,5.9999437z M0,3.9999437L27.999999,3.9999437 27.999999,24.999944 0,24.999944z M5.9999999,0L31.999999,0 31.999999,19 29.999999,19 29.999999,1.9999995 5.9999999,1.9999995z" />
  </g>
</svg>

