<?xml version="1.0" encoding="utf-8"?>
<svg xmlns="http://www.w3.org/2000/svg" height="48" width="48" viewBox="0 0 48 48">
  <g>
    <path id="path1" transform="rotate(0,24,24) translate(0.000759601593017578,0) scale(1.5,1.5)  " fill="#FFFFFF" d="M3.9989657,25L19.998966,25 19.998966,27 3.9989657,27z M3.9989657,20L19.998966,20 19.998966,22 3.9989657,22z M3.9990253,15L19.999025,15 19.999025,17 3.9990253,17z M28.998987,11L28.998987,26.170029 29.490988,26.833029 29.998987,26.164028 29.998987,11z M29.498987,7.0000229C29.223988,7.0000229,28.998987,7.2250228,28.998987,7.5000229L28.998987,9 29.998987,9 29.998987,7.5000229C29.998987,7.2250228,29.773989,7.0000229,29.498987,7.0000229z M29.498987,5.0000219C30.877987,5.0000219,31.998987,6.1210222,31.998987,7.5000229L31.998987,26.836029 29.473988,30.16703 26.998987,26.830029 26.998987,7.5000229C26.998987,6.1210222,28.119987,5.0000219,29.498987,5.0000219z M7.9989882,3.4451599L3.4508615,8 6.9989882,8C7.550988,8,7.9989879,7.552,7.9989882,7z M8.6120157,0L23.231043,0 23.231043,2 9.9989877,2 9.9989877,7C9.9989877,8.6539998,8.652988,10,6.9989882,10L2.0000033,10 2.0000033,29C2.0000032,29.552,2.4480041,30,3.0000052,30L23.231043,30 23.231043,32 3.0000052,32C1.3450019,32,-4.7683716E-07,30.654,0,29L0,8.625z" />
  </g>
</svg>

